#Comment line ignore any data following # character
#Hierarchical Translation and Rotation (.htr) file
[Header]		#Header keywords are followed by a single value
FileType htr		#Single word string
DataType HTRS		#Translation followed by rotation and scale data
FileVersion 1		#integer
NumSegments 18		#integer
NumFrames 8		#integer
DataFrameRate 60		#integer, data frame rate in this file
EulerRotationOrder ZYX
CalibrationUnits mm
RotationUnits Degrees
GlobalAxisofGravity Y
BoneLengthAxis Y
ScaleFactor 1.000000
[SegmentNames&Hierarchy]
#CHILD	PARENT
Head	Neck
Neck	Chest
Chest	Hips
LeftShoulder	LeftCollar
RightShoulder	RightCollar
LeftElbow	LeftShoulder
RightElbow	RightShoulder
LeftWrist	LeftElbow
RightWrist	RightElbow
Hips	GLOBAL
LeftHip	Hips
RightHip	Hips
LeftKnee	LeftHip
RightKnee	RightHip
LeftAnkle	LeftKnee
RightAnkle	RightKnee
LeftCollar	Chest
RightCollar	Chest
[BasePosition]
#SegmentName Tx, Ty, Tz, Rx, Ry, Rz, BoneLength
Head	0.000003	141.966248	0.000002	-37.745777	-8.179454	6.203664	80.000046
Neck	0.000000	379.566772	0.000000	32.855431	-5.194619	1.823337	141.966263
Chest	0.000000	94.891693	0.000000	0.000002	12.877405	-0.000012	379.566803
LeftShoulder	0.000003	154.023666	0.000005	171.957962	-79.977570	-157.094910	215.219986
RightShoulder	-0.000001	146.408707	-0.000001	20.020029	60.865143	-8.207462	240.139038
LeftElbow	0.000007	215.219971	-0.000011	-24.162848	54.442085	-17.491318	336.440125
RightElbow	-0.000021	240.139038	0.000007	-21.925606	-43.617706	23.102211	322.101532
LeftWrist	-0.000014	336.440094	0.000002	173.178864	-0.531422	156.628021	100.348160
RightWrist	0.000005	322.101501	0.000026	1.868945	1.747480	14.125610	109.739998
Hips	377.886597	1077.530640	704.474976	-179.011169	36.455761	-178.006714	94.891701
LeftHip	95.336761	5.238981	-8.336124	-0.485735	-9.415434	-176.117065	525.916443
RightHip	-96.119095	-4.691877	-4.857316	2.457280	-1.423929	-179.125565	528.302429
LeftKnee	0.000004	525.916443	0.000001	-10.646533	-14.541370	-1.855900	514.711975
RightKnee	-0.000002	528.302429	0.000004	-12.768950	2.118825	-3.063609	521.764099
LeftAnkle	0.000003	514.711975	0.000009	97.965164	-0.000001	0.000000	253.446518
RightAnkle	0.000001	521.764099	-0.000002	99.242271	0.000002	0.000000	256.283173
LeftCollar	19.999998	366.483276	-15.126845	169.660507	-4.312743	90.901894	154.023682
RightCollar	-19.999996	366.483215	-15.126822	171.369568	4.171492	-91.645760	146.408707
#Beginning of Data. Separated by tabs
[Head]
#Fr	Tx	Ty	Tz	Rx	Ry	Rz	SF
209	0.000001	15.507324	0.000004	-9.910321	10.531524	5.098814	0.999999
210	-0.000000	14.840179	-0.000006	-9.587205	9.779749	4.929320	0.999999
211	0.000004	14.750824	-0.000010	-9.998931	9.045971	4.646946	0.999999
212	-0.000001	14.619675	-0.000007	-10.389196	8.281661	4.278771	1.000000
213	-0.000008	14.163071	0.000003	-10.320153	7.530389	4.304967	0.999999
214	-0.000002	13.606049	-0.000007	-10.309628	6.706523	4.006330	1.000000
215	0.000001	13.272095	0.000002	-10.432885	5.960666	3.824202	0.999999
216	0.000006	13.360001	-0.000000	-11.025653	5.267034	3.333910	1.000000
[Neck]
#Fr	Tx	Ty	Tz	Rx	Ry	Rz	SF
209	0.000001	-12.104309	0.000002	0.206238	3.140879	-6.801242	1.109232
210	-0.000001	-12.263916	-0.000000	0.078935	2.949156	-6.530214	1.104533
211	-0.000001	-12.336365	-0.000001	0.127463	2.771902	-6.235347	1.103904
212	-0.000002	-12.365601	-0.000000	0.120498	2.593035	-5.886833	1.102980
213	-0.000001	-12.218597	0.000001	0.046469	2.359811	-5.627747	1.099764
214	0.000000	-12.089264	-0.000000	-0.084593	2.148563	-5.257027	1.095840
215	-0.000001	-11.988983	0.000001	-0.087957	1.937461	-4.917109	1.093488
216	0.000004	-11.932922	0.000002	0.031917	1.760929	-4.420763	1.094107
[Chest]
#Fr	Tx	Ty	Tz	Rx	Ry	Rz	SF
209	0.000000	-3.026108	-0.000000	0.000000	-1.920257	0.000005	0.968110
210	-0.000000	-3.065987	-0.000000	0.000003	-2.027345	0.000006	0.967690
211	0.000000	-3.084084	-0.000000	-0.000018	-2.125872	0.000025	0.967499
212	0.000000	-3.091339	0.000000	-0.000018	-2.230010	0.000022	0.967422
213	-0.000000	-3.054642	0.000000	-0.000014	-2.426470	0.000016	0.967809
214	-0.000000	-3.022324	-0.000000	0.000002	-2.695613	0.000005	0.968150
215	0.000000	-2.997299	0.000000	-0.000009	-3.021945	0.000011	0.968414
216	0.000000	-2.983292	-0.000001	0.000002	-3.378691	0.000010	0.968562
[LeftShoulder]
#Fr	Tx	Ty	Tz	Rx	Ry	Rz	SF
209	-0.000004	12.367233	-0.000006	72.861618	38.253838	56.799679	1.184179
210	-0.000007	12.731583	0.000002	69.890419	36.495422	50.617126	1.185694
211	0.000005	13.096191	-0.000006	67.353439	34.736954	45.165958	1.186922
212	0.000003	13.395004	-0.000019	65.199455	33.017036	40.402157	1.187882
213	0.000000	13.685791	-0.000004	63.543446	31.520187	36.602596	1.188485
214	-0.000011	13.885696	-0.000023	62.320175	30.306898	33.675045	1.189176
215	0.000002	14.116150	-0.000015	61.521606	29.442461	31.650068	1.189666
216	0.000001	14.317535	-0.000002	61.098431	28.908562	30.467773	1.189927
[RightShoulder]
#Fr	Tx	Ty	Tz	Rx	Ry	Rz	SF
209	-0.000001	6.272736	0.000007	55.407833	-45.404564	-74.892227	1.116757
210	0.000002	6.067322	-0.000007	55.208729	-45.330070	-74.725609	1.116506
211	-0.000003	5.802063	0.000023	55.011497	-45.273071	-74.555946	1.116177
212	0.000001	5.521957	0.000001	54.854015	-45.221745	-74.405228	1.115913
213	0.000001	5.249603	0.000004	54.676838	-45.153725	-74.211235	1.115678
214	0.000001	4.989059	0.000009	54.495056	-45.081211	-73.978775	1.115319
215	0.000007	4.744797	0.000003	54.274166	-44.984509	-73.667419	1.115034
216	-0.000003	4.582947	0.000022	54.036545	-44.853840	-73.298439	1.114711
[LeftElbow]
#Fr	Tx	Ty	Tz	Rx	Ry	Rz	SF
209	-0.000000	39.639008	0.000007	-6.481633	-27.107040	5.687549	0.918737
210	-0.000000	39.965103	0.000011	-5.552717	-27.502951	5.516992	0.924480
211	-0.000022	40.229370	-0.000006	-4.759584	-27.803854	5.290890	0.929638
212	-0.000008	40.435944	0.000013	-4.123519	-28.020658	5.028587	0.934227
213	-0.000020	40.565720	0.000023	-3.558552	-27.962149	4.717239	0.938002
214	-0.000003	40.714462	0.000009	-3.103166	-27.687035	4.386212	0.941178
215	-0.000017	40.819824	-0.000004	-2.745374	-27.171787	4.074938	0.943468
216	-0.000019	40.876038	-0.000000	-2.453151	-26.539282	3.786539	0.945059
[RightElbow]
#Fr	Tx	Ty	Tz	Rx	Ry	Rz	SF
209	0.000024	28.037903	-0.000015	-1.888997	16.580635	-1.604998	0.962351
210	0.000023	27.977661	-0.000021	-2.372742	16.726074	-1.268723	0.961949
211	0.000009	27.898560	-0.000002	-2.959308	17.031254	-0.891779	0.961808
212	0.000014	27.835205	0.000009	-3.609614	17.363544	-0.472914	0.961904
213	0.000021	27.778809	0.000014	-4.303719	17.751888	-0.042909	0.962231
214	0.000027	27.692596	0.000002	-5.048960	18.259893	0.380278	0.962942
215	0.000015	27.624054	0.000013	-5.819341	18.869560	0.780917	0.963658
216	0.000014	27.546692	0.000009	-6.579592	19.533958	1.137199	0.964456
[LeftWrist]
#Fr	Tx	Ty	Tz	Rx	Ry	Rz	SF
209	0.000023	-27.339996	0.000001	103.045403	-85.028084	-109.488823	0.979874
210	0.000033	-25.407867	-0.000007	105.511559	-84.665970	-110.683784	0.986666
211	0.000028	-23.672394	-0.000010	107.252914	-84.297409	-111.304161	0.996046
212	-0.000006	-22.128815	-0.000014	108.195145	-84.084900	-111.434654	1.005337
213	-0.000000	-20.858582	-0.000004	108.889168	-84.003654	-111.475349	1.015532
214	0.000013	-19.790192	-0.000010	109.329414	-84.097565	-111.481247	1.024530
215	0.000005	-19.019501	-0.000044	109.534782	-84.347015	-111.457764	1.031877
216	0.000023	-18.484344	-0.000025	109.533463	-84.689651	-111.416122	1.037986
[RightWrist]
#Fr	Tx	Ty	Tz	Rx	Ry	Rz	SF
209	-0.000002	-12.126770	-0.000050	-83.477654	82.265259	-90.919556	0.961623
210	-0.000018	-12.256134	-0.000033	-84.986092	82.180000	-91.610001	0.960583
211	0.000002	-12.301605	-0.000027	-86.699615	82.047913	-92.426430	0.959755
212	-0.000013	-12.270844	-0.000020	-88.576057	81.930664	-93.354912	0.959248
213	-0.000019	-12.165588	-0.000029	-90.592484	81.817078	-94.367371	0.958957
214	0.000001	-11.936523	-0.000017	-92.872482	81.737946	-95.519417	0.959387
215	-0.000009	-11.705750	-0.000016	-94.881325	81.705727	-96.564674	0.959551
216	0.000003	-11.448914	-0.000011	-96.859138	81.695885	-97.613144	0.960219
[Hips]
#Fr	Tx	Ty	Tz	Rx	Ry	Rz	SF
209	-1121.641602	19.097168	-608.899658	169.045059	-74.446541	-164.763535	0.968110
210	-1125.763428	19.658325	-602.957581	168.930145	-75.883339	-164.416275	0.967690
211	-1130.171387	19.947632	-597.307434	168.709610	-77.351006	-163.904114	0.967499
212	-1134.509766	20.002319	-591.845032	168.391830	-78.846222	-163.283340	0.967422
213	-1138.769287	19.699829	-586.361145	167.633240	-80.471542	-162.230240	0.967809
214	-1143.114746	19.361084	-581.490051	166.603302	-82.158997	-160.849136	0.968150
215	-1147.197266	19.016235	-576.728943	164.730316	-83.916725	-158.646286	0.968413
216	-1151.270264	18.770142	-572.408264	161.202072	-85.679512	-154.762909	0.968561
[LeftHip]
#Fr	Tx	Ty	Tz	Rx	Ry	Rz	SF
209	0.573105	-4.869421	1.637887	3.422420	-0.380833	3.330763	0.975457
210	0.558144	-5.457401	1.780127	4.511934	-0.472047	3.388413	0.977942
211	0.627563	-5.993209	2.049971	5.812280	-0.621445	3.440589	0.980924
212	0.702766	-6.516870	2.128155	7.215700	-0.809913	3.403224	0.984072
213	0.709465	-7.045175	2.123511	8.673223	-0.915621	3.417216	0.986480
214	0.592911	-7.749990	1.675331	10.324908	-1.075722	3.342242	0.989200
215	0.643456	-8.291816	1.738542	11.899686	-1.164141	3.224105	0.992216
216	0.801704	-8.825253	1.750622	13.582734	-1.243241	2.985300	0.995418
[RightHip]
#Fr	Tx	Ty	Tz	Rx	Ry	Rz	SF
209	0.360847	2.639516	-2.310167	9.411406	0.781844	-3.946284	0.996509
210	0.439728	3.145628	-2.617458	8.980849	0.843407	-4.092847	0.994667
211	0.406586	3.635130	-2.659134	8.619393	0.903291	-4.212341	0.993133
212	0.282028	4.122685	-2.469152	8.202534	0.898239	-4.317070	0.991127
213	0.309448	4.539730	-2.783663	7.843267	0.910419	-4.414144	0.988748
214	0.330902	5.110837	-2.941907	7.582027	0.821232	-4.574573	0.986472
215	0.290138	5.581205	-3.090504	7.291379	0.831748	-4.730763	0.984101
216	0.076759	6.081140	-2.972227	7.019871	0.790607	-4.887996	0.982266
[LeftKnee]
#Fr	Tx	Ty	Tz	Rx	Ry	Rz	SF
209	-0.000007	-12.907471	0.000000	-5.014688	-14.707952	2.790140	0.978934
210	-0.000010	-11.600830	0.000005	-6.259773	-13.323533	3.681132	0.979925
211	-0.000005	-10.032593	-0.000002	-7.743803	-11.836959	4.597457	0.980735
212	-0.000012	-8.377014	0.000005	-9.294242	-10.222265	5.588528	0.981537
213	-0.000003	-7.110107	-0.000004	-10.880312	-8.609203	6.405138	0.982732
214	-0.000011	-5.679932	-0.000008	-12.571936	-6.795808	7.191496	0.983419
215	-0.000003	-4.093506	0.000006	-14.176101	-5.011853	7.817212	0.983837
216	-0.000016	-2.409912	0.000013	-15.831188	-3.267595	8.480027	0.984174
[RightKnee]
#Fr	Tx	Ty	Tz	Rx	Ry	Rz	SF
209	0.000005	-1.844604	-0.000003	-5.219010	-9.103662	-1.952350	0.994434
210	0.000009	-2.817383	-0.000004	-4.625765	-7.742508	-1.576521	0.993988
211	0.000000	-3.627563	0.000000	-4.044225	-6.350976	-1.172423	0.993313
212	-0.000000	-4.687744	0.000004	-3.327196	-4.843837	-0.782417	0.992598
213	0.000001	-5.944458	-0.000005	-2.733724	-3.303001	-0.381269	0.992244
214	0.000002	-7.146667	-0.000004	-2.193577	-1.611331	0.092513	0.992146
215	0.000003	-8.399231	-0.000004	-1.634580	0.031879	0.554696	0.992440
216	0.000007	-9.368835	-0.000002	-1.061491	1.726791	1.024320	0.992273
[LeftAnkle]
#Fr	Tx	Ty	Tz	Rx	Ry	Rz	SF
209	-0.000001	-10.842651	-0.000012	0.697792	-0.000000	-0.000001	1.028695
210	0.000003	-10.332764	0.000004	0.970061	-0.000001	-0.000001	1.029019
211	-0.000014	-9.915955	-0.000019	1.346183	0.000000	-0.000001	1.029594
212	0.000002	-9.503265	-0.000011	1.769012	0.000001	-0.000000	1.029783
213	-0.000021	-8.888000	-0.000007	2.101761	-0.000000	-0.000001	1.030089
214	0.000016	-8.534210	0.000017	2.407979	0.000000	-0.000001	1.029921
215	-0.000028	-8.319183	0.000004	2.631254	-0.000001	-0.000001	1.029762
216	0.000014	-8.145752	-0.000010	2.770812	-0.000000	-0.000000	1.029036
[RightAnkle]
#Fr	Tx	Ty	Tz	Rx	Ry	Rz	SF
209	0.000015	-2.904053	-0.000010	-0.002232	0.000000	0.000001	1.006980
210	0.000007	-3.136597	-0.000005	-0.121596	0.000000	0.000001	1.007668
211	-0.000008	-3.488770	-0.000002	-0.185081	-0.000000	0.000002	1.007552
212	-0.000005	-3.862061	0.000002	-0.297819	0.000001	0.000002	1.007243
213	0.000006	-4.047058	-0.000015	-0.350828	0.000000	0.000002	1.007049
214	-0.000004	-4.097717	-0.000001	-0.406780	0.000001	0.000004	1.006795
215	-0.000010	-3.944702	0.000003	-0.420849	0.000000	-0.000000	1.006301
216	0.000010	-4.031738	0.000017	-0.459574	0.000000	0.000002	1.006243
[LeftCollar]
#Fr	Tx	Ty	Tz	Rx	Ry	Rz	SF
209	-0.000011	-11.452942	-0.539724	3.820653	1.136387	9.606961	1.080294
210	-0.000010	-11.608032	-0.543320	3.871345	1.163017	9.496812	1.082660
211	0.000011	-11.684265	-0.540301	3.862486	1.162948	9.384395	1.085027
212	-0.000002	-11.716248	-0.538169	3.820779	1.166937	9.289641	1.086967
213	0.000019	-11.566223	-0.540583	3.742572	1.195138	9.197625	1.088855
214	-0.000008	-11.445496	-0.533771	3.644398	1.177021	9.149399	1.090153
215	0.000008	-11.348206	-0.531288	3.529852	1.178789	9.125875	1.091649
216	0.000017	-11.305664	-0.520549	3.450858	1.138401	9.127955	1.092957
[RightCollar]
#Fr	Tx	Ty	Tz	Rx	Ry	Rz	SF
209	0.000008	-11.452911	-0.539718	-4.669951	-2.103949	-9.998613	1.042844
210	-0.000017	-11.608002	-0.543349	-4.412381	-2.077685	-10.163603	1.041441
211	-0.000021	-11.684113	-0.540356	-4.120746	-2.017327	-10.316636	1.039629
212	-0.000017	-11.716125	-0.538213	-3.827710	-1.963105	-10.443329	1.037716
213	0.000015	-11.566071	-0.540607	-3.510337	-1.927527	-10.586321	1.035856
214	-0.000019	-11.445374	-0.533796	-3.235444	-1.858714	-10.684699	1.034076
215	-0.000019	-11.348114	-0.531353	-2.962439	-1.811876	-10.791030	1.032408
216	0.000008	-11.305695	-0.520566	-2.732719	-1.734649	-10.882106	1.031302
[EndOfFile]
